<?xml version='1.0' encoding='utf-8'?>
<svg xmlns="http://www.w3.org/2000/svg" version="1.1" id="Layer_1" x="0px" y="0px" viewBox="0 0 500 500" style="enable-background:new 0 0 500 500;"> <style type="text/css"> .st0{fill:#0403FF;} .st1{fill:#0808BD;} .st2{fill:#000373;} .st3{fill:#000473;} .st4{fill:#0001DF;} .st5{fill:#FFFFFD;} .st6{fill:#BFBFC0;} .st7{fill:#BCBFB1;} .st8{fill:#C2C2C2;} .st9{fill:#7E7E7E;} .st10{fill:#C0C0C0;} .st11{fill:#010101;} .st12{fill:#808080;} .st13{fill:#BFC1BB;} .st14{fill:#C6BCBF;} .st15{fill:#817F87;} .st16{fill:#FEFFFA;} .st17{fill:#FFFFFF;} .st18{fill:#BEBEBE;} .st19{fill:#FFFF01;} </style> <g id="Layer_2_1_"> <g id="bluescreens"> <path class="st0" d="M271.6,77.5h122.2v79.1H271.6V77.5z"/> <path class="st1" d="M271.6,73.9v86.3h-7.4l0.2-86.3H271.6z"/> <path class="st2" d="M271.6,77.5h122.2v-7.2H264.4v7.2H271.6z"/> <path class="st3" d="M260.8,66.7h136.6v93.4h-89.8v-3.6h86.3V70.3H264.4v89.8l-3.6,3.6V66.7z"/> <path class="st0" d="M91.9,303.9h122.2V383H91.9V303.9z"/> <path class="st1" d="M91.9,300.3v86.3h-7.4l0.2-86.3H91.9z"/> <path class="st2" d="M91.9,303.9h122.2v-7.2H84.7v7.2H91.9z"/> <path class="st3" d="M214.1,383v-86.3H84.7v89.8h-3.6v-93.4h136.6v93.4h-3.6"/> <path class="st4" d="M91.9,383h122.2v3.6H91.9V383z"/> </g> <g id="computer"> <path class="st5" d="M27.2,458.4v-35.9h219.2l28.8-28.8h18L250,436.9H41.6v21.6H27.2z"/> <path class="st6" d="M27.2,422.5l32.3-32.3v32.3H27.2z"/> <path class="st7" d="M27.2,458.4h14.4v14.4H27.2V458.4z"/> <path class="st8" d="M246.4,422.5l28.8-28.8h-10.8l-28.8,28.8H246.4z"/> <path class="st9" d="M293.1,393.8v50.3l-28.8,28.8H41.6v-14.4H250v-21.6L293.1,393.8z"/> <path class="st10" d="M163.8,447.7v10.8H41.6v-21.6H250v21.6h-14.4v-10.8H163.8z"/> <path class="st11" d="M163.8,447.7h71.9v10.8h-71.9V447.7z"/> <path class="st5" d="M206.9,232v-35.9h219.2l28.8-28.8h18l-43.1,43.1H221.3V232H206.9z"/> <path class="st6" d="M206.9,196.1l32.3-32.3v32.3H206.9z"/> <path class="st7" d="M206.9,232h14.4v14.4h-14.4V232z"/> <path class="st8" d="M426.1,196.1l28.8-28.8h-10.8l-28.8,28.8H426.1z"/> <path class="st9" d="M472.8,167.3v50.3l-28.8,28.8H221.3V232h208.4v-21.6L472.8,167.3z"/> <path class="st10" d="M343.4,221.3V232H221.3v-21.6h208.4V232h-14.4v-10.8H343.4z"/> <path class="st11" d="M343.4,221.3h71.9V232h-71.9V221.3z"/> </g> <g id="monitorsides"> <path class="st12" d="M260.8,181.7h143.8V59.5l35.9-32.3v136.6l-25.2,25.2H253.6"/> <path class="st13" d="M246.4,52.3l158.1,7.2l-7.2,7.2l18-14.4l25.2-25.2H271.6L246.4,52.3z"/> <path class="st14" d="M260.8,167.3h143.8v14.4H260.8V167.3z"/> <path class="st15" d="M253.6,163.8h3.6l3.6-3.6V66.7h136.6l7.2-7.2H253.6V163.8z"/> <path class="st16" d="M257.2,163.8l3.6-3.6h136.6V66.7l7.2-7.2v107.8H257.2V163.8z"/> <path class="st17" d="M246.4,52.3h161.7l-3.6,7.2H253.6v111.4l-7.2,3.6V52.3z"/> <path class="st18" d="M253.6,163.8h3.6v3.6l-3.6,3.6V163.8z"/> <path class="st12" d="M73.9,408.1h150.9V285.9l35.9-32.3v136.6l-25.2,25.2H66.7"/> <path class="st13" d="M66.7,278.8l158.1,7.2l-7.2,7.2l18-14.4l25.2-25.2H91.9L66.7,278.8z"/> <path class="st14" d="M224.8,393.8v14.4H73.9v-18h3.6v3.6H224.8z"/> <path class="st15" d="M73.9,390.2h3.6l3.6-3.6v-93.4h136.6l7.2-7.2H73.9V390.2z"/> <path class="st16" d="M77.5,390.2l3.6-3.6h136.6v-93.4l7.2-7.2v107.8H77.5V390.2z"/> <path class="st17" d="M66.7,278.8h161.7l-3.6,7.2H73.9v122.2l-7.2,7.2V278.8z"/> <path class="st18" d="M73.9,390.2h3.6v3.6h-3.6V390.2z"/> </g> <g id="outlines"> <path d="M20,422.5l35.9-35.9h3.6v7.2h-3.6l-28.8,28.8v50.3h237.2l28.8-28.8v-50.3h-32.3l7.2-7.2h32.3v57.5L264.4,480H20V422.5z"/> <path d="M66.7,278.8v136.6l-7.2,7.2V278.8l32.3-32.3H268v143.8l-32.3,32.3H59.5l7.2-7.2h168.9l25.2-25.2V253.6H91.9L66.7,278.8z"/> <path d="M199.7,196.1l35.9-35.9h3.6v7.2h-3.6l-28.8,28.8v50.3h237.2l28.8-28.8v-50.3h-32.3l7.2-7.2H480v57.5l-35.9,35.9H199.7 V196.1z"/> <path d="M246.4,52.3v136.6l-7.2,7.2V52.3L271.6,20h176.1v143.8l-32.3,32.3H239.2l7.2-7.2h168.9l25.2-25.2V27.2H271.6L246.4,52.3z"/> </g> <g id="bolt"> <path class="st19" d="M181.7,235.6h61.1l-97,97v7.2h10.8l158.1-125.8v-7.2h-57.5l93.4-97v-7.2h-7.2L181.7,228.4V235.6z"/> <path d="M157.8,343.4h-15.6v-12.3l92-92h-56v-12.5L342.2,99.1h12v12.2l-88.6,92h52.6v12.5L157.8,343.4z M149.4,336.3h5.9 l155.8-123.9v-1.9h-62.4L347,108.4v-2.2h-2.4L185.3,230.2v1.8h66.2L149.4,334.1V336.3z"/> </g> </g> </svg>